<?xml version="1.0" standalone="no"?>
<!DOCTYPE svg PUBLIC "-//W3C//DTD SVG 20010904//EN"
 "http://www.w3.org/TR/2001/REC-SVG-20010904/DTD/svg10.dtd">
<svg version="1.0" xmlns="http://www.w3.org/2000/svg"
 width="1238.000000pt" height="1238.000000pt" viewBox="0 0 1238.000000 1238.000000"
 preserveAspectRatio="xMidYMid meet">

<g transform="translate(0.000000,1238.000000) scale(0.100000,-0.100000)"
fill="#000000" stroke="none">
<path d="M0 6190 l0 -6190 6190 0 6190 0 0 6190 0 6190 -6190 0 -6190 0 0
-6190z m9395 5087 c270 -136 457 -259 704 -463 308 -253 592 -597 781 -944 98
-180 100 -184 100 -193 0 -5 21 -56 46 -115 142 -329 227 -747 228 -1117 1
-179 1 -180 -27 -227 -23 -40 -50 -62 -163 -135 -246 -159 -406 -286 -579
-457 -223 -221 -361 -398 -547 -701 -454 -742 -601 -921 -946 -1160 -327 -226
-590 -348 -868 -404 -55 -11 -200 -27 -324 -36 -124 -9 -279 -25 -345 -36
-229 -39 -553 -156 -855 -310 -195 -98 -180 -76 -137 -205 54 -165 82 -283
119 -509 31 -187 31 -516 -1 -735 -137 -934 -694 -1706 -1533 -2122 -99 -48
-138 -73 -138 -85 0 -15 -2 -15 -9 -4 -8 13 -30 7 -138 -32 -160 -58 -365
-109 -553 -138 -125 -20 -182 -23 -410 -22 -237 0 -281 3 -416 26 -165 29
-413 88 -484 117 -25 10 -81 33 -125 50 -211 85 -453 222 -633 358 -106 80
-366 311 -374 331 -1 5 -26 34 -54 63 -129 136 -314 413 -411 618 -114 237
-213 546 -242 750 -6 41 -16 104 -21 140 -6 36 -13 148 -16 250 -20 576 138
1131 458 1614 407 613 1068 1057 1774 1191 51 10 97 21 103 24 6 4 32 131 57
282 116 705 229 1196 379 1639 94 278 194 479 298 597 88 100 316 245 542 343
22 10 67 30 99 45 33 15 89 38 125 51 36 14 75 29 86 33 62 28 188 72 410 146
329 110 500 162 835 258 30 9 276 79 545 157 600 173 621 179 665 190 19 5
105 36 190 68 285 109 616 286 955 511 123 82 368 252 427 298 90 68 132 85
208 79 56 -3 84 -14 215 -79z m1605 -1583 c0 -8 -4 -12 -10 -9 -5 3 -10 13
-10 21 0 8 5 12 10 9 6 -3 10 -13 10 -21z"/>
<path d="M9070 11268 c-30 -18 -84 -56 -120 -84 -36 -28 -162 -116 -281 -196
-504 -338 -906 -544 -1279 -653 -63 -18 -392 -113 -730 -210 -1140 -327 -1562
-466 -1980 -652 -321 -143 -503 -271 -609 -429 -210 -310 -424 -1068 -592
-2094 -28 -168 -56 -314 -63 -326 -11 -16 -43 -26 -147 -48 -312 -65 -651
-197 -869 -337 -30 -19 -75 -48 -100 -64 -185 -116 -464 -371 -623 -570 -305
-381 -493 -813 -569 -1304 -17 -111 -20 -183 -20 -391 0 -227 2 -272 26 -415
58 -357 175 -682 352 -978 84 -140 201 -298 225 -304 10 -3 15 -11 13 -18 -6
-16 142 -179 263 -291 124 -114 388 -312 400 -301 2 3 -7 52 -20 109 -16 66
-21 96 -12 85 8 -11 16 -38 20 -60 14 -89 39 -149 72 -174 72 -55 468 -233
556 -250 31 -6 31 -5 16 13 -20 24 -31 54 -20 54 26 0 41 -15 47 -46 3 -19 10
-36 14 -39 19 -11 208 -55 320 -74 831 -137 1662 106 2285 667 257 230 464
505 618 817 183 370 264 702 274 1127 8 338 -24 567 -123 882 -48 152 -53 195
-26 218 32 28 290 158 442 223 353 151 565 203 950 230 240 17 300 25 424 56
139 35 412 148 431 179 8 13 -1 13 -26 0 -16 -9 -19 -7 -19 10 0 23 9 25 44 9
20 -10 30 -9 51 5 14 9 25 20 25 24 0 5 -17 18 -39 30 -32 18 -37 26 -33 47
l5 26 17 -28 c9 -15 29 -34 43 -42 14 -8 24 -18 21 -23 -13 -21 24 -2 138 73
67 45 157 107 198 138 127 95 356 335 425 446 11 17 44 66 76 110 31 44 126
193 212 331 245 397 342 538 503 724 187 218 469 458 702 599 233 140 237 149
212 482 -29 369 -94 648 -225 963 -251 602 -666 1091 -1260 1482 -134 88 -327
197 -431 244 -27 12 -71 24 -99 27 -44 4 -57 1 -105 -29z m355 -541 c115 -70
225 -147 225 -159 0 -4 7 -8 16 -8 9 0 42 -23 73 -52 54 -49 56 -53 54 -97
l-2 -46 8 38 c4 20 10 39 12 42 8 8 236 -214 316 -307 130 -153 125 -142 116
-228 -5 -41 -5 -131 -2 -200 l5 -125 2 170 c1 94 5 180 8 193 6 21 10 17 48
-35 254 -351 422 -802 466 -1248 6 -60 13 -129 16 -152 5 -41 4 -42 -48 -81
-29 -21 -63 -44 -74 -50 -22 -12 -22 -11 -8 35 8 25 13 60 13 77 -2 27 -2 28
-6 6 -2 -14 -13 -53 -24 -87 -18 -54 -27 -67 -72 -100 -29 -20 -109 -84 -179
-140 -77 -62 -128 -98 -128 -88 0 8 -5 15 -10 15 -6 0 -8 -10 -5 -23 5 -19 -7
-35 -67 -92 l-72 -70 -8 45 c-4 25 -7 144 -7 265 2 370 -2 551 -10 530 -10
-24 -7 -730 4 -800 l7 -50 -90 -102 c-49 -55 -111 -129 -138 -163 l-49 -63 -6
29 c-4 16 -7 49 -9 74 -1 25 -6 54 -11 65 -9 20 -8 13 6 -126 l6 -57 -74 -103
c-73 -103 -176 -265 -329 -514 -86 -140 -233 -362 -271 -409 l-23 -29 2 529
c1 291 3 632 4 757 1 126 0 231 -3 233 -7 8 -20 -675 -21 -1126 -1 -359 -3
-409 -17 -431 -49 -74 -277 -289 -307 -289 -6 0 -18 21 -28 47 -10 25 -20 41
-22 35 -2 -6 4 -24 12 -41 9 -16 16 -37 16 -45 0 -16 -86 -79 -210 -153 -114
-68 -196 -108 -291 -143 -80 -30 -248 -74 -255 -67 -2 2 -8 28 -13 58 l-10 54
2 -57 c2 -61 -4 -68 -60 -68 -23 0 -23 1 -24 168 0 105 -4 160 -9 147 -5 -11
-6 -86 -3 -166 l6 -146 -39 -6 c-21 -4 -70 -7 -108 -7 l-68 0 4 100 c2 55 0
100 -4 100 -4 0 -20 -17 -35 -37 -15 -21 -34 -44 -40 -51 -10 -10 -10 -19 -2
-35 18 -34 22 -35 16 -3 -3 21 2 41 22 70 l26 40 3 -84 c2 -46 0 -90 -3 -97
-3 -11 -21 -14 -62 -13 -32 2 -65 0 -73 -3 -8 -3 -44 -8 -80 -12 -101 -11
-103 -12 -131 -23 -39 -16 -103 -26 -96 -16 20 33 27 590 7 634 -9 23 -10 22
-5 -10 6 -46 8 -240 2 -246 -2 -2 -10 16 -17 41 -13 48 -49 82 -51 48 -1 -28
-1 -436 0 -457 1 -12 6 -16 16 -12 8 3 15 2 15 -2 0 -7 -57 -32 -74 -32 -4 0
-4 44 -1 98 7 122 -6 363 -20 360 -5 -2 -9 -16 -8 -33 1 -16 5 -73 9 -125 5
-77 3 -103 -10 -134 -20 -48 -21 -110 -2 -126 18 -14 11 -37 -16 -51 -33 -18
-38 4 -38 164 0 96 -4 147 -10 147 -7 0 -11 -45 -10 -127 2 -229 5 -208 -39
-221 -21 -7 -42 -12 -46 -12 -4 0 -5 51 -1 114 5 77 4 116 -3 121 -7 4 -11 -9
-12 -37 -2 -109 -9 -202 -16 -209 -5 -4 -66 -31 -137 -60 -264 -107 -638 -306
-866 -459 -98 -66 -236 -150 -245 -150 -3 0 -3 10 0 23 5 15 4 19 -3 12 -6 -5
-12 -21 -14 -34 -6 -45 -355 -211 -557 -265 -74 -20 -91 -22 -91 -10 0 8 -4
14 -10 14 -5 0 -10 -9 -10 -20 0 -20 1 -20 -137 -40 -106 -15 -269 -13 -285 3
-6 8 -22 12 -34 9 -12 -2 -38 1 -57 7 l-34 12 -6 97 c-4 53 -7 192 -7 307 0
186 2 213 18 240 51 82 320 340 484 462 231 172 301 210 722 391 22 9 119 57
215 106 447 227 763 451 1016 719 66 69 92 91 80 69 -20 -41 -13 -54 10 -18
10 14 14 33 11 42 -4 11 8 40 33 78 117 180 128 280 44 403 l-45 67 -1 90 -1
91 -3 -82 c-2 -46 -6 -83 -9 -83 -4 0 -29 21 -58 46 -83 76 -178 138 -310 204
-98 48 -124 65 -119 78 4 13 3 14 -5 4 -14 -20 -107 13 -152 55 -50 44 -116
73 -170 72 -28 0 -80 -13 -135 -35 -121 -47 -281 -103 -328 -113 -30 -7 -39
-6 -47 8 -8 14 -9 13 -10 -6 0 -16 -8 -24 -27 -29 -16 -3 -64 -17 -109 -30
-44 -13 -85 -24 -92 -24 -31 0 -116 -66 -146 -114 -34 -55 -50 -88 -361 -751
-114 -242 -208 -442 -211 -444 -2 -2 -49 8 -104 24 l-100 27 -2 182 -3 181 -2
-177 c-3 -142 -6 -178 -17 -178 -8 0 -58 9 -112 21 -110 23 -326 48 -421 49
-35 0 -63 2 -63 5 0 41 128 720 181 955 123 556 207 837 316 1057 56 113 74
140 119 178 l53 46 4 -138 3 -138 2 142 2 142 57 34 c125 76 463 221 738 318
50 17 140 46 200 65 61 19 164 52 230 74 296 96 1056 320 1087 320 10 0 13
-33 11 -147 -1 -115 1 -138 8 -103 5 25 9 81 8 125 -3 141 -7 132 64 153 34
11 161 47 282 81 326 92 528 157 638 206 l97 44 0 -141 c0 -78 2 -139 5 -137
2 3 7 67 10 144 3 76 7 140 8 141 1 1 74 37 162 81 88 45 214 112 280 150 203
117 670 420 750 486 l30 25 65 -35 c36 -20 110 -63 165 -96z m-1792 -502 c4
-8 2 -17 -3 -20 -6 -4 -10 3 -10 14 0 25 6 27 13 6z m-13 -85 c0 -5 -4 -10
-10 -10 -5 0 -10 5 -10 10 0 6 5 10 10 10 6 0 10 -4 10 -10z m-1325 -2561
c202 -97 302 -158 311 -193 9 -38 -19 -78 -135 -194 -249 -248 -587 -457
-1166 -720 -149 -68 -158 -70 -190 -38 -20 20 -24 31 -19 53 11 44 454 976
472 994 9 9 71 33 137 52 66 20 179 56 250 81 72 24 139 45 150 45 11 1 96
-35 190 -80z m3572 -381 c-3 -7 -5 -2 -5 12 0 14 2 19 5 13 2 -7 2 -19 0 -25z
m63 -37 c0 -17 -4 -33 -10 -36 -5 -3 -10 3 -10 14 0 10 -3 26 -6 35 -4 11 -1
16 10 16 11 0 16 -9 16 -29z m-136 -115 c9 -15 12 -27 6 -31 -10 -6 -50 29
-50 45 0 19 28 10 44 -14z m24 -78 c-6 -18 -28 -21 -28 -4 0 9 7 16 16 16 9 0
14 -5 12 -12z m-724 -703 c-4 -8 -10 -15 -15 -15 -5 0 -9 7 -9 15 0 8 7 15 15
15 9 0 12 -6 9 -15z m-4999 -55 c165 -23 411 -84 438 -109 4 -5 -9 -22 -30
-40 -21 -17 -49 -43 -63 -56 -14 -14 -28 -25 -32 -25 -4 0 -9 28 -11 63 l-3
62 -2 -69 -2 -69 -122 -118 c-68 -64 -145 -144 -173 -178 -27 -33 -53 -60 -58
-60 -4 -1 -12 11 -18 27 -6 15 -25 42 -42 61 -112 118 -304 85 -373 -63 -22
-46 -24 -65 -24 -193 l0 -142 -42 -11 c-24 -6 -74 -22 -113 -36 -38 -14 -79
-28 -89 -31 -18 -6 -19 -1 -14 98 3 57 2 115 -2 129 -5 15 -8 -30 -9 -107 l-1
-132 -72 -49 c-130 -88 -225 -204 -289 -352 -102 -236 -85 -499 47 -725 58
-99 191 -234 289 -291 60 -35 157 -73 255 -99 14 -4 124 -10 245 -15 257 -9
288 -17 371 -93 95 -86 134 -190 115 -303 -28 -158 -138 -269 -291 -293 -37
-6 -248 -10 -480 -11 -231 0 -430 -4 -448 -9 -116 -34 -187 -149 -162 -264 17
-80 85 -169 105 -137 11 17 22 11 21 -12 -1 -19 7 -23 69 -33 39 -6 133 -10
210 -8 77 1 147 3 155 3 8 -1 41 0 73 0 l57 1 0 -132 c0 -144 14 -221 35 -192
10 14 13 8 19 -33 6 -47 8 -50 59 -76 135 -70 264 -30 331 104 14 29 26 45 26
37 0 -9 9 -83 19 -165 11 -82 25 -194 32 -249 7 -55 14 -94 17 -87 5 15 -9
142 -47 417 -18 135 -25 230 -23 292 l3 91 72 17 c86 21 194 69 262 116 28 19
55 38 62 42 10 6 11 -12 8 -75 -2 -46 -2 -69 1 -53 16 108 29 152 54 180 46
52 126 168 154 222 33 67 66 189 75 283 19 186 -50 423 -165 566 -31 39 -32
42 -24 100 5 32 14 85 21 117 8 43 8 62 0 70 -8 8 -11 1 -11 -29 0 -29 -3 -35
-10 -24 -5 8 -10 31 -10 51 l0 37 108 0 c59 0 155 5 214 13 59 7 111 10 115 6
4 -4 7 -33 8 -65 1 -56 42 -171 52 -145 2 6 -3 26 -12 43 -10 19 -14 42 -10
57 3 14 1 40 -5 59 -16 48 -2 67 62 83 149 37 365 117 533 196 l50 24 3 -22
c6 -38 19 -40 26 -4 3 19 14 41 24 49 25 22 304 189 308 185 2 -2 15 -41 29
-87 22 -72 38 -151 83 -400 14 -73 5 -434 -12 -542 -9 -54 -16 -111 -16 -127
0 -52 -105 -375 -167 -516 -47 -107 -141 -278 -183 -335 -15 -19 -59 -79 -99
-134 -92 -125 -316 -346 -446 -441 -118 -86 -253 -169 -377 -231 -99 -50 -306
-129 -315 -120 -3 3 -5 57 -4 120 2 91 -1 116 -11 116 -8 0 -15 12 -16 27 -1
15 -7 32 -12 37 -14 14 -13 -244 0 -280 13 -33 5 -43 -43 -51 -35 -5 -36 -5
-40 33 l-4 39 -1 -42 c-2 -40 -4 -43 -39 -53 -132 -37 -291 -54 -520 -54
l-233 -1 -1 -60 c0 -51 -2 -56 -10 -35 -6 14 -9 42 -7 62 2 21 2 38 1 38 -28
0 -238 37 -293 52 -41 11 -93 23 -115 28 -35 7 -125 40 -325 120 -30 12 -49
16 -42 9 6 -7 12 -20 12 -28 0 -18 -47 23 -55 49 -3 9 -17 22 -31 29 -23 10
-26 9 -21 -4 4 -8 2 -25 -3 -37 -9 -23 -9 -23 -10 2 -1 53 -12 67 -91 114
-147 88 -397 288 -449 360 -8 11 -28 32 -45 48 -17 15 -58 61 -91 103 -46 59
-62 87 -71 133 -7 31 -10 40 -8 20 2 -21 0 -38 -5 -38 -23 0 -206 322 -268
471 -80 194 -126 371 -158 613 -22 170 -15 465 15 646 53 311 146 556 322 846
105 173 176 262 331 417 353 351 764 565 1253 653 190 33 481 40 670 14z
m3085 -223 c0 -18 5 -51 10 -75 7 -29 7 -49 0 -63 -20 -37 -30 -8 -30 87 0 61
4 93 10 89 6 -3 10 -21 10 -38z m1654 -58 c9 -34 15 -63 13 -65 -4 -5 -47 102
-47 117 0 5 4 9 8 9 5 0 16 -28 26 -61z m-286 -197 c4 -44 -15 -41 -20 3 -2
22 0 34 6 32 6 -2 12 -18 14 -35z m-365 13 c-3 -9 -8 -14 -10 -11 -3 3 -2 9 2
15 9 16 15 13 8 -4z m-183 -44 c0 -12 -20 -25 -27 -18 -7 7 6 27 18 27 5 0 9
-4 9 -9z m110 -71 c0 -5 -4 -10 -10 -10 -5 0 -10 5 -10 10 0 6 5 10 10 10 6 0
10 -4 10 -10z m258 -65 c-3 -3 -9 2 -12 12 -6 14 -5 15 5 6 7 -7 10 -15 7 -18z
m-3995 -893 c-3 -6 -68 31 -116 65 -64 47 -91 101 -82 162 4 25 16 68 26 97
20 54 104 198 142 244 l22 26 5 -295 c3 -163 4 -297 3 -299z m-655 91 c39
-246 256 -460 571 -563 l86 -28 3 -76 c2 -42 -1 -76 -6 -76 -5 0 -33 13 -63
29 -131 71 -228 90 -494 100 -182 7 -216 11 -258 29 -70 31 -140 102 -173 175
-25 53 -29 74 -29 147 1 75 5 92 32 146 56 109 176 191 283 193 l35 1 13 -77z
m2537 -373 c3 -5 1 -10 -4 -10 -6 0 -11 5 -11 10 0 6 2 10 4 10 3 0 8 -4 11
-10z m-115 -140 c0 -13 -1 -13 -10 0 -5 8 -10 22 -10 30 0 13 1 13 10 0 5 -8
10 -22 10 -30z m140 -70 c0 -5 -2 -10 -4 -10 -3 0 -8 5 -11 10 -3 6 -1 10 4
10 6 0 11 -4 11 -10z m-1789 -26 c25 -5 25 -6 17 -66 -9 -69 -26 -99 -40 -74
-5 9 -7 20 -3 25 3 5 1 12 -5 16 -7 4 -8 -12 -4 -51 l7 -58 -31 23 c-36 25
-34 19 -36 124 l-1 78 35 -6 c19 -3 47 -8 61 -11z m-125 -871 c-11 -11 -19 6
-11 24 8 17 8 17 12 0 3 -10 2 -21 -1 -24z m64 -23 c0 -5 -2 -10 -4 -10 -3 0
-8 5 -11 10 -3 6 -1 10 4 10 6 0 11 -4 11 -10z m85 -40 c3 -6 -1 -7 -9 -4 -18
7 -21 14 -7 14 6 0 13 -4 16 -10z m50 -30 c3 -5 2 -10 -4 -10 -5 0 -13 5 -16
10 -3 6 -2 10 4 10 5 0 13 -4 16 -10z m105 -25 c7 -9 10 -18 7 -21 -6 -7 -47
18 -47 28 0 14 27 9 40 -7z m1519 -198 c0 -29 -4 -70 -8 -92 -7 -32 -9 -21
-10 58 -1 63 3 96 9 92 6 -3 10 -30 9 -58z m-218 -94 c13 -16 12 -17 -3 -4
-10 7 -18 15 -18 17 0 8 8 3 21 -13z m265 -30 c-12 -12 -29 15 -21 34 7 17 8
16 18 -5 5 -12 7 -25 3 -29z m-16 -43 c6 -11 9 -20 7 -20 -2 0 -12 9 -22 20
-10 11 -13 20 -7 20 6 0 16 -9 22 -20z m-2040 -16 c0 -8 -5 -12 -10 -9 -6 4
-8 11 -5 16 9 14 15 11 15 -7z m-530 -46 c0 -19 -2 -20 -10 -8 -13 19 -13 30
0 30 6 0 10 -10 10 -22z m2554 -42 c-3 -13 0 -34 6 -46 8 -15 9 -25 2 -32 -16
-16 -30 22 -25 65 3 20 9 37 14 37 5 0 7 -11 3 -24z m-3054 -46 c0 -5 -2 -10
-4 -10 -3 0 -8 5 -11 10 -3 6 -1 10 4 10 6 0 11 -4 11 -10z m104 -16 c16 -6
23 -44 8 -44 -12 0 -32 23 -32 37 0 15 2 15 24 7z m2676 -54 c0 -5 -4 -10 -10
-10 -5 0 -10 5 -10 10 0 6 5 10 10 10 6 0 10 -4 10 -10z m-2418 -42 c-9 -9
-12 -7 -12 12 0 19 3 21 12 12 9 -9 9 -15 0 -24z m2498 11 c0 -11 -4 -17 -10
-14 -5 3 -10 13 -10 21 0 8 5 14 10 14 6 0 10 -9 10 -21z m-2353 -66 c-3 -10
-5 -4 -5 12 0 17 2 24 5 18 2 -7 2 -21 0 -30z m2461 8 c3 -8 -1 -12 -9 -9 -7
2 -15 10 -17 17 -3 8 1 12 9 9 7 -2 15 -10 17 -17z m-2477 -139 c-6 -39 -8
-77 -5 -86 3 -8 1 -23 -5 -33 -15 -26 -15 51 1 133 15 85 23 74 9 -14z m1865
-99 c-10 -10 -19 5 -10 18 6 11 8 11 12 0 2 -7 1 -15 -2 -18z m144 -33 c0 -5
-5 -10 -11 -10 -5 0 -7 5 -4 10 3 6 8 10 11 10 2 0 4 -4 4 -10z m-400 -241 c0
-6 -4 -7 -10 -4 -5 3 -10 11 -10 16 0 6 5 7 10 4 6 -3 10 -11 10 -16z m117
-45 c-9 -9 -28 6 -21 18 4 6 10 6 17 -1 6 -6 8 -13 4 -17z m-117 -60 c0 -8 -5
-12 -10 -9 -6 4 -8 11 -5 16 9 14 15 11 15 -7z m-2402 -136 c11 -15 26 -78 18
-78 -7 0 -56 72 -56 82 0 13 27 9 38 -4z m144 -130 c2 -35 0 -72 -6 -83 -9
-19 -10 -18 -17 8 -9 32 0 137 12 137 4 0 9 -28 11 -62z m176 -38 c0 -19 -3
-16 -13 15 -18 54 -18 91 0 45 7 -19 13 -46 13 -60z m-491 -52 c-3 -7 -5 -2
-5 12 0 14 2 19 5 13 2 -7 2 -19 0 -25z m356 -31 c6 -40 -2 -89 -14 -81 -5 3
-9 32 -9 65 0 63 14 73 23 16z m537 -188 c0 -53 -4 -89 -10 -89 -6 0 -10 39
-10 96 0 61 4 93 10 89 6 -3 10 -46 10 -96z m-331 41 c0 -10 -3 -8 -9 5 -12
27 -12 43 0 25 5 -8 9 -22 9 -30z m210 -70 c4 -28 4 -50 0 -50 -5 0 -9 11 -9
25 0 14 -6 41 -14 60 -8 18 -12 36 -8 39 10 10 23 -21 31 -74z"/>
<path d="M9652 10515 c0 -16 2 -22 5 -12 2 9 2 23 0 30 -3 6 -5 -1 -5 -18z"/>
<path d="M9783 10295 c0 -33 2 -45 4 -27 2 18 2 45 0 60 -2 15 -4 0 -4 -33z"/>
<path d="M9773 10160 c0 -30 2 -43 4 -27 2 15 2 39 0 55 -2 15 -4 2 -4 -28z"/>
<path d="M9851 10194 c0 -11 3 -14 6 -6 3 7 2 16 -1 19 -3 4 -6 -2 -5 -13z"/>
<path d="M9762 10050 c0 -14 2 -19 5 -12 2 6 2 18 0 25 -3 6 -5 1 -5 -13z"/>
<path d="M9976 10055 c-9 -26 -7 -32 5 -12 6 10 9 21 6 23 -2 3 -7 -2 -11 -11z"/>
<path d="M9746 9954 c-4 -31 -5 -59 -2 -61 2 -3 8 21 11 52 4 31 5 58 3 61 -3
2 -8 -21 -12 -52z"/>
<path d="M9931 9939 c-6 -18 -9 -34 -7 -36 2 -2 9 10 15 28 6 18 9 34 7 36 -2
2 -9 -10 -15 -28z"/>
<path d="M8992 9930 c0 -19 2 -27 5 -17 2 9 2 25 0 35 -3 9 -5 1 -5 -18z"/>
<path d="M9911 9874 c0 -11 3 -14 6 -6 3 7 2 16 -1 19 -3 4 -6 -2 -5 -13z"/>
<path d="M8992 9845 c0 -16 2 -22 5 -12 2 9 2 23 0 30 -3 6 -5 -1 -5 -18z"/>
<path d="M7281 9853 c-1 -6 -4 -20 -7 -30 -5 -17 -5 -17 6 0 6 10 9 23 6 30
-3 9 -5 9 -5 0z"/>
<path d="M9733 9820 c0 -25 2 -35 4 -22 2 12 2 32 0 45 -2 12 -4 2 -4 -23z"/>
<path d="M7361 9834 c0 -11 3 -14 6 -6 3 7 2 16 -1 19 -3 4 -6 -2 -5 -13z"/>
<path d="M7412 9815 c0 -16 2 -22 5 -12 2 9 2 23 0 30 -3 6 -5 -1 -5 -18z"/>
<path d="M9901 9824 c0 -11 3 -14 6 -6 3 7 2 16 -1 19 -3 4 -6 -2 -5 -13z"/>
<path d="M9071 9737 c-1 -63 3 -96 9 -92 12 7 12 81 1 145 -7 38 -9 29 -10
-53z"/>
<path d="M10179 9763 l-24 -28 30 25 c17 14 32 26 34 28 2 1 0 2 -6 2 -5 0
-20 -12 -34 -27z"/>
<path d="M9893 9745 c0 -22 2 -30 4 -17 2 12 2 30 0 40 -3 9 -5 -1 -4 -23z"/>
<path d="M7953 9705 c0 -33 2 -45 4 -27 2 18 2 45 0 60 -2 15 -4 0 -4 -33z"/>
<path d="M9718 9683 c-2 -37 -1 -83 3 -102 4 -24 7 -2 8 67 0 56 -1 102 -3
102 -2 0 -6 -30 -8 -67z"/>
<path d="M9882 9660 c0 -19 2 -27 5 -17 2 9 2 25 0 35 -3 9 -5 1 -5 -18z"/>
<path d="M7882 9630 c0 -19 2 -27 5 -17 2 9 2 25 0 35 -3 9 -5 1 -5 -18z"/>
<path d="M10063 9615 c0 -22 2 -30 4 -17 2 12 2 30 0 40 -3 9 -5 -1 -4 -23z"/>
<path d="M7012 9595 c0 -11 4 -33 8 -50 l8 -30 0 30 c0 17 -3 39 -8 50 l-9 20
1 -20z"/>
<path d="M7633 9515 c0 -27 2 -38 4 -22 2 15 2 37 0 50 -2 12 -4 0 -4 -28z"/>
<path d="M9073 9480 c0 -47 2 -66 4 -42 2 23 2 61 0 85 -2 23 -4 4 -4 -43z"/>
<path d="M9773 9485 c0 -33 2 -45 4 -27 2 18 2 45 0 60 -2 15 -4 0 -4 -33z"/>
<path d="M7351 9514 c0 -11 3 -14 6 -6 3 7 2 16 -1 19 -3 4 -6 -2 -5 -13z"/>
<path d="M10061 9514 c0 -11 3 -14 6 -6 3 7 2 16 -1 19 -3 4 -6 -2 -5 -13z"/>
<path d="M7341 9464 c0 -11 3 -14 6 -6 3 7 2 16 -1 19 -3 4 -6 -2 -5 -13z"/>
<path d="M7544 9360 c0 -58 1 -81 3 -52 2 28 2 76 0 105 -2 28 -3 5 -3 -53z"/>
<path d="M6853 9395 c0 -33 2 -45 4 -27 2 18 2 45 0 60 -2 15 -4 0 -4 -33z"/>
<path d="M5698 9394 c-5 -4 -8 -16 -8 -28 0 -14 3 -17 11 -9 6 6 9 19 7 28 -1
9 -6 13 -10 9z"/>
<path d="M7622 9380 c0 -14 2 -19 5 -12 2 6 2 18 0 25 -3 6 -5 1 -5 -13z"/>
<path d="M10072 9370 c0 -14 2 -19 5 -12 2 6 2 18 0 25 -3 6 -5 1 -5 -13z"/>
<path d="M7003 9335 c0 -22 2 -30 4 -17 2 12 2 30 0 40 -3 9 -5 -1 -4 -23z"/>
<path d="M7128 9353 c7 -3 16 -2 19 1 4 3 -2 6 -13 5 -11 0 -14 -3 -6 -6z"/>
<path d="M9073 9295 c0 -38 2 -53 4 -32 2 20 2 52 0 70 -2 17 -4 1 -4 -38z"/>
<path d="M5638 9313 c5 -21 7 -23 10 -9 2 10 0 22 -6 28 -6 6 -7 0 -4 -19z"/>
<path d="M5690 9274 c0 -21 5 -46 11 -54 7 -11 8 -1 3 35 -8 62 -14 70 -14 19z"/>
<path d="M7956 9265 c4 -8 8 -15 10 -15 2 0 4 7 4 15 0 8 -4 15 -10 15 -5 0
-7 -7 -4 -15z"/>
<path d="M10238 9220 c-11 -38 -10 -56 3 -43 6 6 9 23 7 39 l-3 29 -7 -25z"/>
<path d="M7614 9140 c0 -52 1 -74 3 -47 2 26 2 68 0 95 -2 26 -3 4 -3 -48z"/>
<path d="M6453 9175 c0 -22 2 -30 4 -17 2 12 2 30 0 40 -3 9 -5 -1 -4 -23z"/>
<path d="M6857 9196 c-4 -10 -6 -39 -6 -64 l1 -47 9 54 c10 58 7 87 -4 57z"/>
<path d="M7664 9115 c0 -49 1 -71 3 -48 2 23 2 64 0 90 -2 26 -3 8 -3 -42z"/>
<path d="M7952 9083 c0 -50 4 -97 9 -105 11 -17 10 138 -1 172 -6 17 -8 -5 -8
-67z"/>
<path d="M7113 9090 c0 -36 2 -50 4 -32 2 17 2 47 0 65 -2 17 -4 3 -4 -33z"/>
<path d="M10649 9025 c0 -71 -2 -188 -3 -259 -2 -70 0 -154 3 -185 5 -40 9 1
14 143 10 269 9 398 -3 416 -7 10 -10 -27 -11 -115z"/>
<path d="M8042 9075 c0 -16 2 -22 5 -12 2 9 2 23 0 30 -3 6 -5 -1 -5 -18z"/>
<path d="M7532 9065 c0 -16 2 -22 5 -12 2 9 2 23 0 30 -3 6 -5 -1 -5 -18z"/>
<path d="M9692 9070 c0 -14 2 -19 5 -12 2 6 2 18 0 25 -3 6 -5 1 -5 -13z"/>
<path d="M7310 9046 c0 -14 5 -28 10 -31 6 -4 10 7 10 24 0 17 -4 31 -10 31
-5 0 -10 -11 -10 -24z"/>
<path d="M5113 8975 c0 -33 2 -45 4 -27 2 18 2 45 0 60 -2 15 -4 0 -4 -33z"/>
<path d="M5142 8995 c0 -16 2 -22 5 -12 2 9 2 23 0 30 -3 6 -5 -1 -5 -18z"/>
<path d="M7312 8975 c0 -16 2 -22 5 -12 2 9 2 23 0 30 -3 6 -5 -1 -5 -18z"/>
<path d="M8692 8955 c0 -16 2 -22 5 -12 2 9 2 23 0 30 -3 6 -5 -1 -5 -18z"/>
<path d="M7112 8930 c0 -19 2 -27 5 -17 2 9 2 25 0 35 -3 9 -5 1 -5 -18z"/>
<path d="M7611 8934 c0 -11 3 -14 6 -6 3 7 2 16 -1 19 -3 4 -6 -2 -5 -13z"/>
<path d="M7956 8898 c-9 -79 -7 -156 4 -163 6 -4 10 33 10 104 0 61 -2 111 -4
111 -2 0 -6 -24 -10 -52z"/>
<path d="M9692 8925 c0 -16 2 -22 5 -12 2 9 2 23 0 30 -3 6 -5 -1 -5 -18z"/>
<path d="M9971 8914 c0 -11 3 -14 6 -6 3 7 2 16 -1 19 -3 4 -6 -2 -5 -13z"/>
<path d="M7452 8890 c0 -14 2 -19 5 -12 2 6 2 18 0 25 -3 6 -5 1 -5 -13z"/>
<path d="M6976 8817 c-4 -43 -6 -81 -3 -84 8 -8 19 78 15 122 -2 31 -5 22 -12
-38z"/>
<path d="M9987 8845 c3 -27 10 -61 14 -75 5 -16 6 -6 2 25 -3 27 -10 61 -14
75 -5 16 -6 6 -2 -25z"/>
<path d="M5692 8835 c0 -16 2 -22 5 -12 2 9 2 23 0 30 -3 6 -5 -1 -5 -18z"/>
<path d="M7601 8834 c0 -11 3 -14 6 -6 3 7 2 16 -1 19 -3 4 -6 -2 -5 -13z"/>
<path d="M9921 8834 c0 -11 3 -14 6 -6 3 7 2 16 -1 19 -3 4 -6 -2 -5 -13z"/>
<path d="M5552 8820 c0 -14 2 -19 5 -12 2 6 2 18 0 25 -3 6 -5 1 -5 -13z"/>
<path d="M7113 8785 c0 -27 2 -38 4 -22 2 15 2 37 0 50 -2 12 -4 0 -4 -28z"/>
<path d="M5153 8760 c0 -25 2 -35 4 -22 2 12 2 32 0 45 -2 12 -4 2 -4 -23z"/>
<path d="M7443 8745 c0 -33 2 -45 4 -27 2 18 2 45 0 60 -2 15 -4 0 -4 -33z"/>
<path d="M6437 8765 c-4 -8 -2 -17 3 -20 6 -4 10 3 10 14 0 25 -6 27 -13 6z"/>
<path d="M9701 8744 c1 -16 5 -40 9 -54 6 -17 7 -9 3 25 -6 56 -14 74 -12 29z"/>
<path d="M9763 8735 c0 -22 2 -30 4 -17 2 12 2 30 0 40 -3 9 -5 -1 -4 -23z"/>
<path d="M7594 8726 c-7 -18 8 -41 23 -35 5 2 3 15 -3 29 -12 22 -14 22 -20 6z"/>
<path d="M8993 8680 c0 -25 2 -35 4 -22 2 12 2 32 0 45 -2 12 -4 2 -4 -23z"/>
<path d="M7302 8680 c0 -19 2 -27 5 -17 2 9 2 25 0 35 -3 9 -5 1 -5 -18z"/>
<path d="M10396 8694 c-10 -26 -7 -104 4 -104 6 0 10 27 10 60 0 62 -3 72 -14
44z"/>
<path d="M7645 8690 c3 -5 8 -10 11 -10 2 0 4 5 4 10 0 6 -5 10 -11 10 -5 0
-7 -4 -4 -10z"/>
<path d="M7612 8645 c0 -16 2 -22 5 -12 2 9 2 23 0 30 -3 6 -5 -1 -5 -18z"/>
<path d="M5153 8590 c0 -36 3 -96 7 -135 l7 -70 0 80 c1 44 -2 105 -7 135 l-7
55 0 -65z"/>
<path d="M7440 8628 c0 -9 5 -20 10 -23 13 -8 13 5 0 25 -8 13 -10 13 -10 -2z"/>
<path d="M8991 8614 c0 -11 3 -14 6 -6 3 7 2 16 -1 19 -3 4 -6 -2 -5 -13z"/>
<path d="M4382 8580 c0 -19 2 -27 5 -17 2 9 2 25 0 35 -3 9 -5 1 -5 -18z"/>
<path d="M8993 8555 c0 -22 2 -30 4 -17 2 12 2 30 0 40 -3 9 -5 -1 -4 -23z"/>
<path d="M6973 8300 c0 -167 3 -257 8 -230 10 58 10 459 -1 485 -4 11 -8 -104
-7 -255z"/>
<path d="M7303 8535 c0 -22 2 -30 4 -17 2 12 2 30 0 40 -3 9 -5 -1 -4 -23z"/>
<path d="M7595 8514 c-4 -22 -2 -41 4 -47 8 -8 11 3 11 36 0 56 -5 60 -15 11z"/>
<path d="M9792 8525 c-1 -16 3 -48 7 -70 11 -53 12 -5 2 55 -6 34 -9 37 -9 15z"/>
<path d="M9233 8500 c0 -25 2 -35 4 -22 2 12 2 32 0 45 -2 12 -4 2 -4 -23z"/>
<path d="M7440 8478 c0 -24 -3 -54 -7 -68 -3 -14 -2 -21 3 -17 11 10 22 127
12 127 -4 0 -8 -19 -8 -42z"/>
<path d="M5652 8475 c0 -16 2 -22 5 -12 2 9 2 23 0 30 -3 6 -5 -1 -5 -18z"/>
<path d="M9436 8428 c-9 -89 -5 -344 5 -293 6 37 10 355 4 355 -1 0 -5 -28 -9
-62z"/>
<path d="M7301 8454 c0 -11 3 -14 6 -6 3 7 2 16 -1 19 -3 4 -6 -2 -5 -13z"/>
<path d="M9644 8435 c2 -17 8 -132 11 -255 4 -124 11 -241 15 -260 6 -24 7 -8
5 50 -3 47 -7 170 -11 275 -3 104 -10 197 -16 205 -7 11 -8 7 -4 -15z"/>
<path d="M9976 8320 c22 -125 34 -168 34 -123 0 38 -39 236 -48 245 -6 6 1
-50 14 -122z"/>
<path d="M7594 8325 c0 -66 1 -92 3 -57 2 34 2 88 0 120 -2 31 -3 3 -3 -63z"/>
<path d="M8991 8424 c0 -11 3 -14 6 -6 3 7 2 16 -1 19 -3 4 -6 -2 -5 -13z"/>
<path d="M5551 8414 c0 -11 3 -14 6 -6 3 7 2 16 -1 19 -3 4 -6 -2 -5 -13z"/>
<path d="M5660 8410 c-5 -31 2 -166 9 -178 7 -12 4 145 -3 178 -3 13 -4 13 -6
0z"/>
<path d="M7873 8380 c0 -25 2 -35 4 -22 2 12 2 32 0 45 -2 12 -4 2 -4 -23z"/>
<path d="M10347 8369 c3 -24 7 -46 9 -48 9 -10 3 65 -5 78 -6 10 -8 -1 -4 -30z"/>
<path d="M10236 8368 c4 -13 11 -39 15 -58 l7 -35 1 42 c1 46 -6 73 -21 73 -5
0 -6 -10 -2 -22z"/>
<path d="M8044 8260 c0 -69 1 -97 3 -62 2 34 2 90 0 125 -2 34 -3 6 -3 -63z"/>
<path d="M9740 8333 c0 -23 5 -45 10 -48 13 -8 13 55 0 75 -7 11 -10 4 -10
-27z"/>
<path d="M7645 8349 c-4 -6 -5 -12 -2 -15 2 -3 7 2 10 11 7 17 1 20 -8 4z"/>
<path d="M9802 8330 c0 -14 2 -19 5 -12 2 6 2 18 0 25 -3 6 -5 1 -5 -13z"/>
<path d="M5543 8300 c0 -25 2 -35 4 -22 2 12 2 32 0 45 -2 12 -4 2 -4 -23z"/>
<path d="M7443 8290 c0 -30 2 -43 4 -27 2 15 2 39 0 55 -2 15 -4 2 -4 -28z"/>
<path d="M9234 8215 c0 -71 1 -99 3 -62 2 37 2 96 0 130 -2 34 -3 4 -3 -68z"/>
<path d="M6331 8309 c-1 -8 13 -64 29 -122 17 -59 30 -117 30 -130 1 -19 2
-20 11 -5 7 12 3 39 -16 95 -13 43 -31 101 -39 128 -8 28 -14 43 -15 34z"/>
<path d="M7642 8285 c0 -16 2 -22 5 -12 2 9 2 23 0 30 -3 6 -5 -1 -5 -18z"/>
<path d="M9581 8284 c0 -11 3 -14 6 -6 3 7 2 16 -1 19 -3 4 -6 -2 -5 -13z"/>
<path d="M6401 8274 c0 -11 3 -14 6 -6 3 7 2 16 -1 19 -3 4 -6 -2 -5 -13z"/>
<path d="M7292 8260 c0 -19 2 -27 5 -17 2 9 2 25 0 35 -3 9 -5 1 -5 -18z"/>
<path d="M8992 8265 c0 -16 2 -22 5 -12 2 9 2 23 0 30 -3 6 -5 -1 -5 -18z"/>
<path d="M7862 8240 c0 -19 2 -27 5 -17 2 9 2 25 0 35 -3 9 -5 1 -5 -18z"/>
<path d="M5161 8234 c0 -11 3 -14 6 -6 3 7 2 16 -1 19 -3 4 -6 -2 -5 -13z"/>
<path d="M7210 8217 c0 -14 5 -29 10 -32 7 -4 8 3 4 22 -9 38 -14 42 -14 10z"/>
<path d="M9745 8154 c4 -49 9 -91 11 -93 2 -2 4 34 4 82 0 52 -4 89 -11 93 -8
4 -9 -19 -4 -82z"/>
<path d="M4264 8216 c-3 -8 -4 -27 -2 -43 3 -23 5 -20 9 15 5 43 2 53 -7 28z"/>
<path d="M4622 8190 c0 -14 2 -19 5 -12 2 6 2 18 0 25 -3 6 -5 1 -5 -13z"/>
<path d="M5171 8195 c0 -11 4 -29 9 -40 l9 -20 0 20 c0 11 -4 29 -9 40 l-9 20
0 -20z"/>
<path d="M5673 8155 c0 -33 2 -45 4 -27 2 18 2 45 0 60 -2 15 -4 0 -4 -33z"/>
<path d="M5553 8125 c0 -44 2 -61 4 -37 2 23 2 59 0 80 -2 20 -4 1 -4 -43z"/>
<path d="M7593 8165 c0 -22 2 -30 4 -17 2 12 2 30 0 40 -3 9 -5 -1 -4 -23z"/>
<path d="M9303 8150 c0 -30 2 -43 4 -27 2 15 2 39 0 55 -2 15 -4 2 -4 -28z"/>
<path d="M4381 8174 c0 -11 3 -14 6 -6 3 7 2 16 -1 19 -3 4 -6 -2 -5 -13z"/>
<path d="M5332 8150 c0 -14 2 -19 5 -12 2 6 2 18 0 25 -3 6 -5 1 -5 -13z"/>
<path d="M7424 8154 c3 -9 6 -21 6 -27 0 -7 4 -7 9 2 10 16 4 41 -11 41 -6 0
-7 -7 -4 -16z"/>
<path d="M7741 8154 c0 -11 3 -14 6 -6 3 7 2 16 -1 19 -3 4 -6 -2 -5 -13z"/>
<path d="M7641 8144 c0 -11 3 -14 6 -6 3 7 2 16 -1 19 -3 4 -6 -2 -5 -13z"/>
<path d="M9690 8141 c0 -5 5 -13 10 -16 6 -3 10 -2 10 4 0 5 -4 13 -10 16 -5
3 -10 2 -10 -4z"/>
<path d="M7864 7995 c0 -77 2 -107 3 -67 2 40 2 103 0 140 -2 37 -3 4 -3 -73z"/>
<path d="M5192 8100 c0 -14 2 -19 5 -12 2 6 2 18 0 25 -3 6 -5 1 -5 -13z"/>
<path d="M4254 8015 c0 -55 1 -76 3 -47 2 29 2 74 0 100 -2 26 -3 2 -3 -53z"/>
<path d="M6842 8085 c0 -16 2 -22 5 -12 2 9 2 23 0 30 -3 6 -5 -1 -5 -18z"/>
<path d="M8993 8000 c0 -47 2 -66 4 -42 2 23 2 61 0 85 -2 23 -4 4 -4 -43z"/>
<path d="M5202 8050 c0 -14 2 -19 5 -12 2 6 2 18 0 25 -3 6 -5 1 -5 -13z"/>
<path d="M6467 8063 c-2 -5 0 -21 4 -38 7 -29 7 -29 8 8 1 35 -3 46 -12 30z"/>
<path d="M7311 8054 c0 -11 3 -14 6 -6 3 7 2 16 -1 19 -3 4 -6 -2 -5 -13z"/>
<path d="M9292 8045 c0 -16 2 -22 5 -12 2 9 2 23 0 30 -3 6 -5 -1 -5 -18z"/>
<path d="M6410 8050 c0 -5 5 -10 11 -10 5 0 7 5 4 10 -3 6 -8 10 -11 10 -2 0
-4 -4 -4 -10z"/>
<path d="M7643 8005 c0 -27 2 -38 4 -22 2 15 2 37 0 50 -2 12 -4 0 -4 -28z"/>
<path d="M9232 8030 c0 -14 2 -19 5 -12 2 6 2 18 0 25 -3 6 -5 1 -5 -13z"/>
<path d="M6401 8004 c0 -11 3 -14 6 -6 3 7 2 16 -1 19 -3 4 -6 -2 -5 -13z"/>
<path d="M7051 8004 c0 -11 3 -14 6 -6 3 7 2 16 -1 19 -3 4 -6 -2 -5 -13z"/>
<path d="M7318 7892 c4 -180 9 -201 10 -42 0 74 -2 143 -6 152 -4 10 -6 -40
-4 -110z"/>
<path d="M7532 7990 c0 -19 2 -27 5 -17 2 9 2 25 0 35 -3 9 -5 1 -5 -18z"/>
<path d="M7730 7983 c0 -28 3 -34 10 -23 13 20 13 60 0 60 -5 0 -10 -17 -10
-37z"/>
<path d="M5211 7994 c0 -11 3 -14 6 -6 3 7 2 16 -1 19 -3 4 -6 -2 -5 -13z"/>
<path d="M5672 7985 c0 -16 2 -22 5 -12 2 9 2 23 0 30 -3 6 -5 -1 -5 -18z"/>
<path d="M7232 7965 c0 -16 2 -22 5 -12 2 9 2 23 0 30 -3 6 -5 -1 -5 -18z"/>
<path d="M5221 7944 c0 -11 3 -14 6 -6 3 7 2 16 -1 19 -3 4 -6 -2 -5 -13z"/>
<path d="M7534 7845 c0 -60 1 -84 3 -52 2 32 2 81 0 110 -2 29 -3 3 -3 -58z"/>
<path d="M4381 7914 c0 -11 3 -14 6 -6 3 7 2 16 -1 19 -3 4 -6 -2 -5 -13z"/>
<path d="M7432 7905 c0 -16 2 -22 5 -12 2 9 2 23 0 30 -3 6 -5 -1 -5 -18z"/>
<path d="M7591 7619 c1 -223 4 -300 11 -264 9 50 3 563 -7 573 -3 3 -4 -136
-4 -309z"/>
<path d="M7643 7895 c0 -22 2 -30 4 -17 2 12 2 30 0 40 -3 9 -5 -1 -4 -23z"/>
<path d="M8731 7914 c0 -11 3 -14 6 -6 3 7 2 16 -1 19 -3 4 -6 -2 -5 -13z"/>
<path d="M9050 7488 c0 -243 3 -438 7 -434 10 10 10 876 1 876 -5 0 -8 -199
-8 -442z"/>
<path d="M7222 7900 c0 -14 2 -19 5 -12 2 6 2 18 0 25 -3 6 -5 1 -5 -13z"/>
<path d="M4910 7895 c0 -5 5 -17 10 -25 5 -8 10 -10 10 -5 0 6 -5 17 -10 25
-5 8 -10 11 -10 5z"/>
<path d="M7938 7823 c-10 -188 -9 -871 1 -878 8 -4 11 135 11 474 0 265 -2
481 -4 481 -2 0 -6 -35 -8 -77z"/>
<path d="M8722 7870 c0 -14 2 -19 5 -12 2 6 2 18 0 25 -3 6 -5 1 -5 -13z"/>
<path d="M9291 7864 c0 -11 3 -14 6 -6 3 7 2 16 -1 19 -3 4 -6 -2 -5 -13z"/>
<path d="M7090 7707 c0 -66 4 -117 9 -117 9 0 3 219 -5 229 -2 2 -4 -48 -4
-112z"/>
<path d="M8243 7770 c0 -25 2 -35 4 -22 2 12 2 32 0 45 -2 12 -4 2 -4 -23z"/>
<path d="M4712 7760 c0 -19 2 -27 5 -17 2 9 2 25 0 35 -3 9 -5 1 -5 -18z"/>
<path d="M7642 7760 c0 -19 2 -27 5 -17 2 9 2 25 0 35 -3 9 -5 1 -5 -18z"/>
<path d="M8383 7740 c0 -30 2 -43 4 -27 2 15 2 39 0 55 -2 15 -4 2 -4 -28z"/>
<path d="M9702 7745 c0 -16 2 -22 5 -12 2 9 2 23 0 30 -3 6 -5 -1 -5 -18z"/>
<path d="M7862 7725 c0 -16 2 -22 5 -12 2 9 2 23 0 30 -3 6 -5 -1 -5 -18z"/>
<path d="M9273 7705 c0 -22 2 -30 4 -17 2 12 2 30 0 40 -3 9 -5 -1 -4 -23z"/>
<path d="M9412 7715 c-1 -16 -4 -48 -7 -70 l-5 -40 11 33 c5 19 8 50 6 70 -3
33 -4 34 -5 7z"/>
<path d="M7395 7720 c-3 -5 -1 -10 4 -10 6 0 11 5 11 10 0 6 -2 10 -4 10 -3 0
-8 -4 -11 -10z"/>
<path d="M8692 7665 c0 -22 3 -49 8 -60 l9 -20 0 20 c0 11 -4 38 -8 60 l-9 40
0 -40z"/>
<path d="M5000 7635 c-7 -25 -10 -48 -8 -51 3 -2 11 16 17 42 15 61 8 68 -9 9z"/>
<path d="M4382 7645 c0 -16 2 -22 5 -12 2 9 2 23 0 30 -3 6 -5 -1 -5 -18z"/>
<path d="M4722 7650 c0 -14 2 -19 5 -12 2 6 2 18 0 25 -3 6 -5 1 -5 -13z"/>
<path d="M9713 7615 c0 -33 2 -45 4 -27 2 18 2 45 0 60 -2 15 -4 0 -4 -33z"/>
<path d="M9142 7640 c0 -14 2 -19 5 -12 2 6 2 18 0 25 -3 6 -5 1 -5 -13z"/>
<path d="M8394 7555 c0 -49 1 -71 3 -48 2 23 2 64 0 90 -2 26 -3 8 -3 -42z"/>
<path d="M7442 7595 c0 -16 2 -22 5 -12 2 9 2 23 0 30 -3 6 -5 -1 -5 -18z"/>
<path d="M9282 7595 c0 -16 2 -22 5 -12 2 9 2 23 0 30 -3 6 -5 -1 -5 -18z"/>
<path d="M7102 7490 c0 -52 3 -106 7 -120 4 -14 6 25 3 85 -5 140 -10 159 -10
35z"/>
<path d="M8711 7564 c0 -11 3 -14 6 -6 3 7 2 16 -1 19 -3 4 -6 -2 -5 -13z"/>
<path d="M9143 7525 c0 -27 2 -38 4 -22 2 15 2 37 0 50 -2 12 -4 0 -4 -28z"/>
<path d="M7692 7535 c0 -16 2 -22 5 -12 2 9 2 23 0 30 -3 6 -5 -1 -5 -18z"/>
<path d="M7411 7534 c0 -11 3 -14 6 -6 3 7 2 16 -1 19 -3 4 -6 -2 -5 -13z"/>
<path d="M7641 7534 c0 -11 3 -14 6 -6 3 7 2 16 -1 19 -3 4 -6 -2 -5 -13z"/>
<path d="M8562 7520 c0 -19 4 -48 8 -65 l8 -30 0 35 c0 19 -4 49 -8 65 l-8 30
0 -35z"/>
<path d="M9294 7455 c0 -49 1 -71 3 -48 2 23 2 64 0 90 -2 26 -3 8 -3 -42z"/>
<path d="M9413 7500 c0 -25 2 -35 4 -22 2 12 2 32 0 45 -2 12 -4 2 -4 -23z"/>
<path d="M4383 7490 c0 -25 2 -35 4 -22 2 12 2 32 0 45 -2 12 -4 2 -4 -23z"/>
<path d="M8724 7290 c0 -129 2 -182 3 -117 2 64 2 170 0 235 -1 64 -3 11 -3
-118z"/>
<path d="M7432 7490 c0 -14 2 -19 5 -12 2 6 2 18 0 25 -3 6 -5 1 -5 -13z"/>
<path d="M5041 7484 c0 -11 3 -14 6 -6 3 7 2 16 -1 19 -3 4 -6 -2 -5 -13z"/>
<path d="M9143 7380 c0 -36 2 -50 4 -32 2 17 2 47 0 65 -2 17 -4 3 -4 -33z"/>
<path d="M7225 7410 c3 -5 8 -10 11 -10 2 0 4 5 4 10 0 6 -5 10 -11 10 -5 0
-7 -4 -4 -10z"/>
<path d="M4383 7345 c0 -27 2 -38 4 -22 2 15 2 37 0 50 -2 12 -4 0 -4 -28z"/>
<path d="M8393 7295 c0 -33 2 -45 4 -27 2 18 2 45 0 60 -2 15 -4 0 -4 -33z"/>
<path d="M7103 7280 c0 -36 2 -50 4 -32 2 17 2 47 0 65 -2 17 -4 3 -4 -33z"/>
<path d="M7171 7294 c0 -11 3 -14 6 -6 3 7 2 16 -1 19 -3 4 -6 -2 -5 -13z"/>
<path d="M9141 7193 c2 -133 6 -125 11 20 2 53 0 97 -4 97 -4 0 -7 -53 -7
-117z"/>
<path d="M7423 7273 c9 -9 19 -14 23 -11 10 10 -6 28 -24 28 -15 0 -15 -1 1
-17z"/>
<path d="M7862 7185 c0 -16 2 -22 5 -12 2 9 2 23 0 30 -3 6 -5 -1 -5 -18z"/>
<path d="M8891 7194 c0 -11 3 -14 6 -6 3 7 2 16 -1 19 -3 4 -6 -2 -5 -13z"/>
<path d="M8581 7133 c1 -57 1 -58 10 -18 11 55 11 75 -1 75 -6 0 -9 -25 -9
-57z"/>
<path d="M7092 7160 c0 -14 2 -19 5 -12 2 6 2 18 0 25 -3 6 -5 1 -5 -13z"/>
<path d="M7273 7070 c0 -47 2 -66 4 -42 2 23 2 61 0 85 -2 23 -4 4 -4 -43z"/>
<path d="M7172 7110 c0 -19 2 -27 5 -17 2 9 2 25 0 35 -3 9 -5 1 -5 -18z"/>
<path d="M7442 7100 c0 -14 2 -19 5 -12 2 6 2 18 0 25 -3 6 -5 1 -5 -13z"/>
<path d="M7643 7075 c0 -22 2 -30 4 -17 2 12 2 30 0 40 -3 9 -5 -1 -4 -23z"/>
<path d="M9143 6970 c0 -47 2 -66 4 -42 2 23 2 61 0 85 -2 23 -4 4 -4 -43z"/>
<path d="M8893 6980 c0 -36 2 -50 4 -32 2 17 2 47 0 65 -2 17 -4 3 -4 -33z"/>
<path d="M9063 7005 c0 -22 2 -30 4 -17 2 12 2 30 0 40 -3 9 -5 -1 -4 -23z"/>
<path d="M7432 7010 c0 -14 2 -19 5 -12 2 6 2 18 0 25 -3 6 -5 1 -5 -13z"/>
<path d="M8721 7014 c0 -11 3 -14 6 -6 3 7 2 16 -1 19 -3 4 -6 -2 -5 -13z"/>
<path d="M8922 6990 c0 -19 2 -27 5 -17 2 9 2 25 0 35 -3 9 -5 1 -5 -18z"/>
<path d="M8572 6980 c0 -14 2 -19 5 -12 2 6 2 18 0 25 -3 6 -5 1 -5 -13z"/>
<path d="M8332 6970 c0 -14 2 -19 5 -12 2 6 2 18 0 25 -3 6 -5 1 -5 -13z"/>
<path d="M7182 6945 c0 -16 2 -22 5 -12 2 9 2 23 0 30 -3 6 -5 -1 -5 -18z"/>
<path d="M6836 6883 c-8 -96 -6 -406 4 -538 4 -67 7 19 8 258 0 196 -1 357 -2
357 -2 0 -6 -34 -10 -77z"/>
<path d="M7273 6885 c0 -38 2 -53 4 -32 2 20 2 52 0 70 -2 17 -4 1 -4 -38z"/>
<path d="M7323 6915 c0 -22 2 -30 4 -17 2 12 2 30 0 40 -3 9 -5 -1 -4 -23z"/>
<path d="M8562 6930 c0 -14 2 -19 5 -12 2 6 2 18 0 25 -3 6 -5 1 -5 -13z"/>
<path d="M7864 6815 c0 -55 1 -76 3 -47 2 29 2 74 0 100 -2 26 -3 2 -3 -53z"/>
<path d="M8551 6874 c0 -11 3 -14 6 -6 3 7 2 16 -1 19 -3 4 -6 -2 -5 -13z"/>
<path d="M8717 6833 c-3 -16 -2 -46 3 -68 7 -36 8 -34 9 28 1 71 -3 85 -12 40z"/>
<path d="M7333 6770 c0 -36 2 -50 4 -32 2 17 2 47 0 65 -2 17 -4 3 -4 -33z"/>
<path d="M4213 6770 c0 -30 2 -43 4 -27 2 15 2 39 0 55 -2 15 -4 2 -4 -28z"/>
<path d="M7176 6785 c-3 -8 -1 -15 4 -15 6 0 10 7 10 15 0 8 -2 15 -4 15 -2 0
-6 -7 -10 -15z"/>
<path d="M7425 6780 c3 -5 8 -10 11 -10 2 0 4 5 4 10 0 6 -5 10 -11 10 -5 0
-7 -4 -4 -10z"/>
<path d="M9031 6764 c0 -11 3 -14 6 -6 3 7 2 16 -1 19 -3 4 -6 -2 -5 -13z"/>
<path d="M8927 6660 c3 -58 7 -107 9 -109 8 -8 3 135 -6 174 -5 27 -6 5 -3
-65z"/>
<path d="M4172 6715 c0 -16 2 -22 5 -12 2 9 2 23 0 30 -3 6 -5 -1 -5 -18z"/>
<path d="M7953 6655 c0 -27 2 -38 4 -22 2 15 2 37 0 50 -2 12 -4 0 -4 -28z"/>
<path d="M7861 6458 c2 -92 7 -162 10 -156 9 14 4 306 -5 315 -4 5 -6 -67 -5
-159z"/>
<path d="M8723 6560 c0 -36 2 -50 4 -32 2 17 2 47 0 65 -2 17 -4 3 -4 -33z"/>
<path d="M7342 6530 c0 -14 2 -19 5 -12 2 6 2 18 0 25 -3 6 -5 1 -5 -13z"/>
<path d="M6971 6504 c0 -11 3 -14 6 -6 3 7 2 16 -1 19 -3 4 -6 -2 -5 -13z"/>
<path d="M7222 6480 c0 -14 2 -19 5 -12 2 6 2 18 0 25 -3 6 -5 1 -5 -13z"/>
<path d="M8706 6470 c-3 -8 -2 -44 3 -80 7 -54 9 -58 10 -23 0 23 6 43 11 45
7 2 6 15 -4 38 -10 24 -16 30 -20 20z"/>
<path d="M7596 6446 c3 -8 12 -17 20 -20 8 -3 19 -16 24 -28 9 -22 9 -22 9 4
1 29 -22 58 -44 58 -8 0 -12 -6 -9 -14z"/>
<path d="M7212 6420 c0 -14 2 -19 5 -12 2 6 2 18 0 25 -3 6 -5 1 -5 -13z"/>
<path d="M7512 6375 c0 -16 2 -22 5 -12 2 9 2 23 0 30 -3 6 -5 -1 -5 -18z"/>
<path d="M7470 6373 c0 -12 5 -25 10 -28 13 -8 13 15 0 35 -8 12 -10 11 -10
-7z"/>
<path d="M6492 6350 c0 -14 2 -19 5 -12 2 6 2 18 0 25 -3 6 -5 1 -5 -13z"/>
<path d="M7137 6339 c4 -13 8 -18 11 -10 2 7 -1 18 -6 23 -8 8 -9 4 -5 -13z"/>
<path d="M7648 6328 c-2 -7 -2 -40 2 -73 l6 -60 5 64 c4 60 -3 98 -13 69z"/>
<path d="M7760 6326 c0 -8 5 -18 10 -21 6 -3 10 1 10 9 0 8 -4 18 -10 21 -5 3
-10 -1 -10 -9z"/>
<path d="M7494 6300 c3 -14 8 -53 12 -88 9 -87 24 -88 24 -2 0 40 -4 69 -9 66
-5 -4 -14 6 -20 21 -10 26 -11 26 -7 3z"/>
<path d="M7363 6270 c0 -25 2 -35 4 -22 2 12 2 32 0 45 -2 12 -4 2 -4 -23z"/>
<path d="M6500 6265 c0 -8 7 -15 16 -15 14 0 14 3 4 15 -7 8 -14 15 -16 15 -2
0 -4 -7 -4 -15z"/>
<path d="M7873 6180 c0 -25 2 -35 4 -22 2 12 2 32 0 45 -2 12 -4 2 -4 -23z"/>
<path d="M7663 6110 c0 -25 2 -35 4 -22 2 12 2 32 0 45 -2 12 -4 2 -4 -23z"/>
<path d="M7532 6090 c0 -14 2 -19 5 -12 2 6 2 18 0 25 -3 6 -5 1 -5 -13z"/>
<path d="M5553 6030 c0 -25 2 -35 4 -22 2 12 2 32 0 45 -2 12 -4 2 -4 -23z"/>
<path d="M7002 6050 c0 -14 2 -19 5 -12 2 6 2 18 0 25 -3 6 -5 1 -5 -13z"/>
<path d="M6886 5981 c-4 -7 -5 -15 -2 -18 9 -9 19 4 14 18 -4 11 -6 11 -12 0z"/>
<path d="M7533 5880 c0 -25 2 -35 4 -22 2 12 2 32 0 45 -2 12 -4 2 -4 -23z"/>
<path d="M8091 5894 c0 -11 3 -14 6 -6 3 7 2 16 -1 19 -3 4 -6 -2 -5 -13z"/>
<path d="M6492 5765 c0 -16 2 -22 5 -12 2 9 2 23 0 30 -3 6 -5 -1 -5 -18z"/>
<path d="M6502 5710 c0 -14 2 -19 5 -12 2 6 2 18 0 25 -3 6 -5 1 -5 -13z"/>
<path d="M5553 5660 c0 -25 2 -35 4 -22 2 12 2 32 0 45 -2 12 -4 2 -4 -23z"/>
<path d="M6511 5654 c0 -11 3 -14 6 -6 3 7 2 16 -1 19 -3 4 -6 -2 -5 -13z"/>
<path d="M4502 5245 c0 -16 2 -22 5 -12 2 9 2 23 0 30 -3 6 -5 -1 -5 -18z"/>
<path d="M5562 5210 c0 -19 2 -27 5 -17 2 9 2 25 0 35 -3 9 -5 1 -5 -18z"/>
<path d="M5696 5205 c-9 -26 -7 -32 5 -12 6 10 9 21 6 23 -2 3 -7 -2 -11 -11z"/>
<path d="M4502 5188 c-1 -14 -3 -102 -5 -195 -3 -119 -1 -152 5 -113 5 30 7
118 5 195 -1 77 -4 128 -5 113z"/>
<path d="M5553 5125 c0 -27 2 -38 4 -22 2 15 2 37 0 50 -2 12 -4 0 -4 -28z"/>
<path d="M5645 5130 c-3 -5 -1 -10 4 -10 6 0 11 5 11 10 0 6 -2 10 -4 10 -3 0
-8 -4 -11 -10z"/>
<path d="M4461 5100 c-1 -14 -4 -92 -6 -175 -2 -126 -1 -139 6 -80 5 39 8 117
6 175 -1 58 -4 94 -6 80z"/>
<path d="M5613 5055 c0 -22 2 -30 4 -17 2 12 2 30 0 40 -3 9 -5 -1 -4 -23z"/>
<path d="M5360 4944 c0 -8 5 -12 10 -9 6 4 8 11 5 16 -9 14 -15 11 -15 -7z"/>
<path d="M4960 4723 c0 -22 2 -25 10 -13 13 20 13 40 0 40 -5 0 -10 -12 -10
-27z"/>
<path d="M5910 7535 c-107 -35 -219 -72 -249 -82 l-54 -18 -68 -145 c-109
-231 -297 -627 -354 -743 -16 -31 -26 -60 -22 -63 3 -3 34 8 69 24 90 43 157
72 164 72 15 0 312 151 429 219 258 148 431 271 576 408 79 76 148 159 138
167 -39 31 -123 79 -217 123 -64 30 -139 65 -165 79 -27 13 -49 24 -50 24 -1
-1 -90 -30 -197 -65z"/>
<path d="M3192 5925 c0 -16 2 -22 5 -12 2 9 2 23 0 30 -3 6 -5 -1 -5 -18z"/>
<path d="M3172 5915 c0 -16 2 -22 5 -12 2 9 2 23 0 30 -3 6 -5 -1 -5 -18z"/>
<path d="M3196 5842 c-8 -13 21 -168 30 -159 2 2 -2 42 -9 88 -8 50 -16 79
-21 71z"/>
<path d="M3381 5308 c0 -7 4 -22 9 -33 8 -18 9 -17 9 7 1 15 -3 30 -9 33 -5 3
-10 0 -9 -7z"/>
<path d="M2252 5240 c0 -14 2 -19 5 -12 2 6 2 18 0 25 -3 6 -5 1 -5 -13z"/>
<path d="M2043 5200 c0 -30 2 -43 4 -27 2 15 2 39 0 55 -2 15 -4 2 -4 -28z"/>
<path d="M2980 5227 c-12 -21 -12 -21 6 -7 10 8 20 15 22 16 2 1 -1 4 -5 7 -5
3 -15 -4 -23 -16z"/>
<path d="M2031 4744 c1 -234 5 -324 10 -274 7 71 1 610 -7 619 -2 2 -3 -153
-3 -345z"/>
<path d="M1851 5030 c0 -32 2 -40 9 -29 5 9 6 28 0 45 -8 27 -8 26 -9 -16z"/>
<path d="M2243 5028 c-6 -8 -7 -37 -3 -68 7 -56 15 -52 23 10 2 19 7 43 12 53
9 20 -17 24 -32 5z"/>
<path d="M2171 5014 c0 -11 3 -14 6 -6 3 7 2 16 -1 19 -3 4 -6 -2 -5 -13z"/>
<path d="M2165 4820 c-3 -5 -1 -10 4 -10 6 0 11 5 11 10 0 6 -2 10 -4 10 -3 0
-8 -4 -11 -10z"/>
<path d="M2231 4729 c-1 -15 5 -39 13 -53 l14 -27 6 27 c5 17 2 30 -7 38 -8 6
-17 18 -20 26 -3 9 -6 4 -6 -11z"/>
<path d="M1906 4567 c-4 -38 -5 -71 -3 -74 8 -7 19 79 15 113 -2 18 -6 4 -12
-39z"/>
<path d="M1851 4494 c0 -11 3 -14 6 -6 3 7 2 16 -1 19 -3 4 -6 -2 -5 -13z"/>
<path d="M1852 4425 c0 -16 2 -22 5 -12 2 9 2 23 0 30 -3 6 -5 -1 -5 -18z"/>
<path d="M1881 4424 c0 -11 3 -14 6 -6 3 7 2 16 -1 19 -3 4 -6 -2 -5 -13z"/>
<path d="M1872 4380 c0 -14 2 -19 5 -12 2 6 2 18 0 25 -3 6 -5 1 -5 -13z"/>
<path d="M1856 4319 c-3 -17 -2 -38 4 -47 7 -13 9 -5 10 31 0 54 -5 60 -14 16z"/>
<path d="M5545 4268 c-10 -122 -10 -179 -1 -320 5 -73 13 -128 19 -128 7 0 7
30 1 88 -5 48 -8 167 -6 265 2 97 1 177 -2 177 -2 0 -7 -37 -11 -82z"/>
<path d="M2231 4197 c-1 -83 3 -126 9 -122 12 7 12 153 1 210 -7 30 -9 7 -10
-88z"/>
<path d="M1790 4276 c0 -31 6 -34 13 -6 3 11 1 23 -4 26 -5 3 -9 -6 -9 -20z"/>
<path d="M2034 4190 c0 -63 1 -89 3 -57 2 31 2 83 0 115 -2 31 -3 5 -3 -58z"/>
<path d="M2287 4170 c3 -30 7 -57 9 -59 7 -8 2 64 -6 89 -6 16 -7 6 -3 -30z"/>
<path d="M5360 4155 c1 -6 7 -21 16 -35 l15 -25 -7 25 c-7 26 -24 52 -24 35z"/>
<path d="M1773 4060 c0 -41 2 -58 4 -37 2 20 2 54 0 75 -2 20 -4 3 -4 -38z"/>
<path d="M1882 4075 c0 -16 2 -22 5 -12 2 9 2 23 0 30 -3 6 -5 -1 -5 -18z"/>
<path d="M4900 4051 c0 -6 4 -13 10 -16 6 -3 7 1 4 9 -7 18 -14 21 -14 7z"/>
<path d="M4810 4043 c0 -13 29 -38 35 -31 3 3 -4 13 -15 23 -11 10 -20 13 -20
8z"/>
<path d="M2034 3840 c0 -107 2 -151 3 -97 2 53 2 141 0 195 -1 53 -3 9 -3 -98z"/>
<path d="M4870 4009 c0 -6 10 -24 23 -39 12 -15 36 -51 52 -80 17 -28 44 -72
60 -97 17 -26 34 -55 40 -65 10 -18 34 -32 42 -24 5 5 -46 83 -85 130 -13 17
-28 40 -33 53 -8 23 -88 133 -95 133 -2 0 -4 -5 -4 -11z"/>
<path d="M1882 3985 c0 -16 2 -22 5 -12 2 9 2 23 0 30 -3 6 -5 -1 -5 -18z"/>
<path d="M4641 3989 c-1 -39 36 -146 76 -217 19 -35 37 -62 39 -59 2 2 -9 34
-26 70 -17 36 -44 103 -60 149 -17 50 -29 73 -29 57z"/>
<path d="M1881 3934 c0 -11 3 -14 6 -6 3 7 2 16 -1 19 -3 4 -6 -2 -5 -13z"/>
<path d="M5496 3935 c4 -11 7 -47 6 -80 -2 -66 11 -59 22 11 5 34 2 46 -15 65
-18 21 -20 21 -13 4z"/>
<path d="M5706 3933 c-12 -12 -6 -43 9 -43 8 0 15 9 15 19 0 21 -13 34 -24 24z"/>
<path d="M2172 3905 c0 -16 2 -22 5 -12 2 9 2 23 0 30 -3 6 -5 -1 -5 -18z"/>
<path d="M5614 3775 c0 -88 2 -123 3 -77 2 46 2 118 0 160 -1 42 -3 5 -3 -83z"/>
<path d="M2223 3840 c0 -25 2 -35 4 -22 2 12 2 32 0 45 -2 12 -4 2 -4 -23z"/>
<path d="M1612 3840 c0 -19 2 -27 5 -17 2 9 2 25 0 35 -3 9 -5 1 -5 -18z"/>
<path d="M2880 3825 c-11 -13 -10 -14 4 -9 9 3 16 10 16 15 0 13 -6 11 -20 -6z"/>
<path d="M4780 3790 c6 -11 13 -20 16 -20 2 0 0 9 -6 20 -6 11 -13 20 -16 20
-2 0 0 -9 6 -20z"/>
<path d="M5562 3780 c0 -19 2 -27 5 -17 2 9 2 25 0 35 -3 9 -5 1 -5 -18z"/>
<path d="M1752 3770 c0 -14 2 -19 5 -12 2 6 2 18 0 25 -3 6 -5 1 -5 -13z"/>
<path d="M2212 3760 c0 -14 2 -19 5 -12 2 6 2 18 0 25 -3 6 -5 1 -5 -13z"/>
<path d="M5563 3655 c0 -38 2 -53 4 -32 2 20 2 52 0 70 -2 17 -4 1 -4 -38z"/>
<path d="M4980 3696 c0 -2 8 -10 18 -17 15 -13 16 -12 3 4 -13 16 -21 21 -21
13z"/>
<path d="M2131 3644 c0 -11 3 -14 6 -6 3 7 2 16 -1 19 -3 4 -6 -2 -5 -13z"/>
<path d="M5143 3617 c14 -24 31 -66 37 -93 16 -66 31 -104 41 -104 12 0 11 2
-5 42 -8 19 -17 65 -20 102 -5 76 -8 80 -50 90 l-28 7 25 -44z"/>
<path d="M5681 3540 l1 -65 9 55 c4 32 4 59 -2 65 -5 5 -9 -16 -8 -55z"/>
<path d="M1581 3574 c0 -11 3 -14 6 -6 3 7 2 16 -1 19 -3 4 -6 -2 -5 -13z"/>
<path d="M2023 3545 c0 -27 2 -38 4 -22 2 15 2 37 0 50 -2 12 -4 0 -4 -28z"/>
<path d="M5562 3560 c0 -14 2 -19 5 -12 2 6 2 18 0 25 -3 6 -5 1 -5 -13z"/>
<path d="M5621 3484 c0 -43 4 -88 9 -99 6 -13 7 15 4 75 -4 52 -8 97 -10 99
-2 2 -4 -31 -3 -75z"/>
<path d="M2131 3409 c1 -74 4 -144 8 -157 3 -13 6 44 6 127 -1 82 -4 153 -8
157 -4 4 -7 -53 -6 -127z"/>
<path d="M3323 3490 c0 -30 2 -43 4 -27 2 15 2 39 0 55 -2 15 -4 2 -4 -28z"/>
<path d="M3852 3495 c0 -16 2 -22 5 -12 2 9 2 23 0 30 -3 6 -5 -1 -5 -18z"/>
<path d="M4886 3466 c6 -16 34 -30 34 -18 0 5 -5 13 -12 20 -16 16 -29 15 -22
-2z"/>
<path d="M5512 3421 c4 -13 18 -16 19 -4 0 4 -5 9 -11 12 -7 2 -11 -2 -8 -8z"/>
<path d="M3323 3375 c0 -22 2 -30 4 -17 2 12 2 30 0 40 -3 9 -5 -1 -4 -23z"/>
<path d="M5531 3374 c0 -11 3 -14 6 -6 3 7 2 16 -1 19 -3 4 -6 -2 -5 -13z"/>
<path d="M5633 3268 c1 -42 4 -75 7 -74 3 2 13 6 22 9 16 6 16 10 2 59 -26 87
-33 89 -31 6z"/>
<path d="M5543 3275 c3 -33 2 -109 -2 -170 -4 -60 -4 -116 -1 -124 4 -7 11 40
15 105 12 181 12 221 -4 236 -11 11 -13 4 -8 -47z"/>
<path d="M1603 3285 c0 -22 2 -30 4 -17 2 12 2 30 0 40 -3 9 -5 -1 -4 -23z"/>
<path d="M1773 3205 c0 -33 2 -45 4 -27 2 18 2 45 0 60 -2 15 -4 0 -4 -33z"/>
<path d="M2011 3184 c0 -11 3 -14 6 -6 3 7 2 16 -1 19 -3 4 -6 -2 -5 -13z"/>
<path d="M1962 3160 c0 -14 2 -19 5 -12 2 6 2 18 0 25 -3 6 -5 1 -5 -13z"/>
<path d="M1821 3145 c0 -11 4 -27 9 -35 9 -13 10 -13 9 0 0 8 -4 24 -9 35 l-9
20 0 -20z"/>
<path d="M5667 3063 c3 -48 10 -92 15 -98 7 -7 8 20 4 80 -9 117 -25 134 -19
18z"/>
<path d="M2383 3070 c0 -25 2 -35 4 -22 2 12 2 32 0 45 -2 12 -4 2 -4 -23z"/>
<path d="M3452 3080 c0 -14 2 -19 5 -12 2 6 2 18 0 25 -3 6 -5 1 -5 -13z"/>
<path d="M2205 2948 c-4 -42 -5 -82 -2 -90 3 -7 6 1 6 18 1 17 6 45 12 62 7
21 8 41 1 59 -8 24 -10 18 -17 -49z"/>
<path d="M2136 2979 c-3 -17 -5 -50 -5 -73 1 -30 4 -23 10 29 8 74 6 97 -5 44z"/>
<path d="M1882 2980 c0 -14 2 -19 5 -12 2 6 2 18 0 25 -3 6 -5 1 -5 -13z"/>
<path d="M5630 2912 c0 -11 69 -77 74 -71 8 8 -45 79 -59 79 -8 0 -15 -4 -15
-8z"/>
<path d="M5551 2870 c0 -8 4 -22 9 -30 12 -18 12 -2 0 25 -6 13 -9 15 -9 5z"/>
<path d="M2114 2595 c4 -137 10 -253 15 -258 14 -14 21 26 18 93 -2 30 3 73
11 94 7 22 11 66 10 100 -4 56 -5 58 -12 28 -14 -54 -26 -18 -26 78 0 47 -5
92 -11 100 -7 10 -8 -60 -5 -235z"/>
<path d="M2033 2675 c0 -22 2 -30 4 -17 2 12 2 30 0 40 -3 9 -5 -1 -4 -23z"/>
<path d="M2027 2597 c-4 -10 -7 -26 -7 -35 1 -15 2 -15 11 1 6 10 9 25 7 35
-3 16 -4 15 -11 -1z"/>
<path d="M4453 2514 c3 -16 9 -54 12 -84 6 -57 44 -194 51 -187 4 4 -3 40 -30
162 -9 39 -16 82 -16 97 0 15 -5 30 -11 34 -8 4 -9 -3 -6 -22z"/>
<path d="M2221 2433 c1 -10 4 -31 8 -48 l7 -30 13 23 c10 20 10 27 -4 48 -18
28 -25 30 -24 7z"/>
<path d="M4373 2375 c0 -38 2 -53 4 -32 2 20 2 52 0 70 -2 17 -4 1 -4 -38z"/>
<path d="M2182 2350 c0 -14 2 -19 5 -12 2 6 2 18 0 25 -3 6 -5 1 -5 -13z"/>
<path d="M3289 2288 c-2 -24 -1 -70 2 -103 5 -51 6 -45 7 43 2 104 -3 136 -9
60z"/>
<path d="M3357 2290 c-4 -14 -6 -36 -6 -50 1 -22 2 -20 10 8 6 19 9 41 7 50
-3 12 -6 10 -11 -8z"/>
<path d="M4363 2245 c0 -22 2 -30 4 -17 2 12 2 30 0 40 -3 9 -5 -1 -4 -23z"/>
<path d="M4465 2143 c8 -73 23 -116 39 -110 16 6 9 126 -9 154 -28 42 -38 28
-30 -44z"/>
<path d="M4377 2080 c3 -30 7 -57 9 -59 7 -8 2 64 -6 89 -6 16 -7 6 -3 -30z"/>
<path d="M4320 2093 c0 -13 5 -23 10 -23 13 0 13 11 0 30 -8 12 -10 11 -10 -7z"/>
<path d="M3190 2038 c0 -44 3 -59 10 -48 13 20 13 97 0 105 -6 4 -10 -17 -10
-57z"/>
<path d="M3912 2045 c0 -11 4 -33 8 -50 7 -27 8 -27 8 -5 0 14 -4 36 -8 50 -6
20 -8 21 -8 5z"/>
<path d="M3857 1985 c3 -27 7 -52 9 -54 8 -9 2 65 -6 84 -6 13 -7 2 -3 -30z"/>
<path d="M4383 1970 c0 -25 2 -35 4 -22 2 12 2 32 0 45 -2 12 -4 2 -4 -23z"/>
<path d="M3932 1935 c0 -16 2 -22 5 -12 2 9 2 23 0 30 -3 6 -5 -1 -5 -18z"/>
<path d="M3873 1875 c0 -22 2 -30 4 -17 2 12 2 30 0 40 -3 9 -5 -1 -4 -23z"/>
<path d="M3883 1765 c0 -27 2 -38 4 -22 2 15 2 37 0 50 -2 12 -4 0 -4 -28z"/>
<path d="M3301 1774 c0 -11 3 -14 6 -6 3 7 2 16 -1 19 -3 4 -6 -2 -5 -13z"/>
<path d="M3302 1680 c0 -14 2 -19 5 -12 2 6 2 18 0 25 -3 6 -5 1 -5 -13z"/>
<path d="M3891 1654 c0 -11 3 -14 6 -6 3 7 2 16 -1 19 -3 4 -6 -2 -5 -13z"/>
<path d="M3671 4615 c1 -19 18 -51 18 -35 0 8 -4 22 -9 30 -5 8 -9 11 -9 5z"/>
<path d="M3831 4470 c0 -8 7 -31 15 -50 l14 -35 -6 35 c-7 40 -24 76 -23 50z"/>
<path d="M3670 4457 c0 -14 31 -69 36 -64 3 3 -4 20 -15 38 -12 19 -21 30 -21
26z"/>
<path d="M3761 4385 c0 -5 6 -35 14 -65 7 -30 13 -44 13 -30 0 24 -25 115 -27
95z"/>
<path d="M3485 4350 c3 -5 8 -10 11 -10 2 0 4 5 4 10 0 6 -5 10 -11 10 -5 0
-7 -4 -4 -10z"/>
<path d="M4462 4090 c-10 -16 -10 -20 2 -20 7 0 16 9 19 20 3 11 2 20 -2 20
-3 0 -12 -9 -19 -20z"/>
</g>
</svg>
