<?xml version="1.0" standalone="no"?>
<!DOCTYPE svg PUBLIC "-//W3C//DTD SVG 20010904//EN"
 "http://www.w3.org/TR/2001/REC-SVG-20010904/DTD/svg10.dtd">
<svg version="1.0" xmlns="http://www.w3.org/2000/svg"
 width="510.000000pt" height="512.000000pt" viewBox="0 0 510.000000 512.000000"
 preserveAspectRatio="xMidYMid meet">

<g transform="translate(0.000000,512.000000) scale(0.100000,-0.100000)"
fill="#000000" stroke="none">
<path d="M2736 3140 c-777 -777 -914 -917 -876 -902 25 11 116 45 204 77 l159
59 784 780 c767 764 784 782 783 819 0 53 -35 87 -91 87 l-41 0 -922 -920z"/>
<path d="M2108 3195 c-162 -54 -577 -277 -810 -437 -140 -96 -192 -148 -212
-210 -22 -72 -46 -254 -46 -359 0 -86 -1 -88 -82 -275 -90 -209 -101 -258 -70
-314 23 -41 65 -75 81 -65 18 11 161 204 161 218 0 28 49 114 84 147 20 20 60
48 89 63 l53 28 44 222 45 222 139 93 c76 50 142 92 146 92 8 0 60 -76 60 -87
0 -5 -55 -44 -122 -88 l-122 -80 -28 -135 c-15 -74 -27 -144 -28 -155 0 -13
184 164 545 525 300 300 545 548 545 552 0 13 -227 61 -310 64 -71 4 -97 0
-162 -21z"/>
<path d="M2765 2750 c-143 -143 -257 -260 -254 -260 4 0 38 13 77 29 l70 29
20 -51 c14 -37 16 -54 8 -59 -28 -16 -412 -168 -601 -238 -116 -43 -284 -114
-375 -160 -91 -45 -167 -84 -169 -86 -2 -2 11 -20 29 -41 30 -34 76 -121 68
-128 -6 -5 -87 -45 -92 -45 -3 0 -15 19 -27 43 -26 51 -77 107 -98 107 -30 -1
-114 -55 -145 -93 -28 -35 -31 -46 -31 -109 0 -68 1 -70 37 -104 28 -25 47
-34 72 -34 20 0 130 37 253 84 664 256 596 242 928 192 239 -36 241 -36 440
-111 356 -133 367 -135 811 -135 l344 0 0 -60 0 -60 -307 0 c-170 0 -348 5
-398 10 -109 13 -253 48 -357 88 l-78 30 0 -61 c0 -59 -23 -125 -62 -179 -7
-9 -10 -19 -8 -21 3 -2 162 -23 353 -47 340 -41 354 -42 565 -37 203 5 350 22
418 47 l24 10 -2 667 -3 668 -40 2 c-175 11 -248 31 -584 157 -308 116 -593
216 -613 216 -7 0 -130 -117 -273 -260z"/>
<path d="M2195 1733 c-34 -8 -599 -225 -608 -233 -14 -12 162 -108 220 -120
47 -10 81 -7 276 25 241 39 295 57 326 108 31 52 35 91 13 140 -29 65 -66 87
-144 86 -34 -1 -72 -3 -83 -6z"/>
<path d="M2603 1667 l-53 -10 0 -52 c0 -147 -105 -262 -257 -281 -61 -8 -61
-24 0 -24 65 0 465 68 496 85 74 37 105 116 77 189 -36 93 -116 122 -263 93z"/>
<path d="M1112 1517 c-33 -35 -105 -131 -270 -365 -19 -26 -21 -33 -9 -38 17
-6 347 224 414 289 l42 40 -41 20 c-22 11 -52 37 -68 58 l-27 38 -41 -42z"/>
<path d="M1327 1323 l-89 -84 36 -44 c106 -128 168 -147 250 -74 65 57 61 134
-12 205 -26 25 -58 54 -72 64 l-25 18 -88 -85z"/>
</g>
</svg>
